<svg width="150" height="126" viewBox="0 0 150 126" fill="none" xmlns="http://www.w3.org/2000/svg">
<path d="M0 54.0005C0 87.0005 33.5 126 75 126C116.5 126 150 87.0005 150 54.0005H0Z" fill="white"/>
<path d="M150 53.9995C150 75.2495 116.5 92.4995 75 92.4995C33.5 92.4995 0 75.2495 0 53.9995C0 32.7495 33.5 15.4995 75 15.4995C116.5 15.4995 150 32.7495 150 53.9995Z" fill="#E8E8E8"/>
<path d="M75.0001 87.5002C37.0001 87.5002 4.75006 72.0002 4.75006 53.7502C4.75006 35.5002 37.0001 20.0002 75.0001 20.0002C113 20.0002 145.25 35.5002 145.25 53.7502C145.25 72.2502 113 87.5002 75.0001 87.5002Z" fill="white"/>
<path d="M26.25 11.9998C26.5 16.2498 28.5 30.4998 26.75 36.9998C37.75 38.9998 29.5 17.7498 26.25 11.9998Z" fill="#E8E8E8"/>
<path d="M134 40.2503C139 28.7503 131.25 16.7503 126.25 23.7503C121.25 30.7503 125 35.2503 112.25 32.7503C109.5 28.0003 116.25 13.5003 112.25 10.7503C105.75 6.50029 105.75 22.5003 98.25 13.2503C90.75 4.25029 90.5 25.5003 79.25 25.5003C73.75 25.5003 81.5 9.00029 69 5.75029C56.5 2.50029 60 16.7503 45 8.50029C30 0.250291 22.25 12.7503 29.25 18.0003C36 23.2503 30.5 33.7503 29.5 37.7503C21 33.7503 21.5 51.0003 21.75 53.7503C15.75 55.7503 5.99997 60.0003 5.74997 60.2503C12 75.2503 41 87.5003 75 87.5003C113 87.5003 145.25 72.0003 145.25 53.7503C145.25 35.2503 125.75 59.0003 134 40.2503Z" fill="#E8E8E8"/>
<path d="M90.7501 60.9998C97 47.7498 81.7501 53.2498 76.0001 58.9998C75.7501 49.4998 80.7501 43.4998 85.0001 36.9998C78.0001 41.9998 70.5001 47.7498 62.2501 50.7498C67.0001 56.2498 69.5001 63.7498 70.5001 70.9998C90.5001 72.9998 86.0001 82.4998 85.0001 87.2498C108.75 85.4998 84.7501 73.9998 90.7501 60.9998Z" fill="#E8E8E8"/>
<path d="M38.25 28.0004C34.25 32.0004 33 37.0004 35.5 39.5004C37.75 42.0004 42.75 40.7504 46.75 36.7504C50.75 32.7504 52 27.7504 49.5 25.2504C47 23.0004 42 24.2504 38.25 28.0004Z" fill="#E8E8E8"/>
<path d="M90.9999 75.0007C86.9999 79.0007 85.7499 84.0007 88.2499 86.5007C90.4999 89.0007 95.4999 87.7507 99.4999 83.7507C103.5 79.7507 104.75 74.7507 102.25 72.2507C99.9999 69.7507 94.9999 71.0007 90.9999 75.0007Z" fill="#E8E8E8"/>
<path d="M60.2499 21C50.4999 21.5 45.9999 46.75 38.9999 45.25C44.7499 50.75 47.7499 59 47.7499 67C49.2499 67.25 51.4999 63 52.7499 67.5C50.9999 53.75 51.4999 38.75 60.2499 21Z" fill="#E8E8E8"/>
<path d="M101 29.25C103.5 34.25 103.25 39.5 100.25 41C97.2501 42.5 93.0001 40 90.2501 35C87.7501 30 88.0001 24.75 91.0001 23.25C94.0001 21.75 98.5001 24.25 101 29.25Z" fill="#E8E8E8"/>
<path d="M120.25 33.4997C99 30.9997 95.75 30.4997 113.5 48.2497C118.25 54.2497 100.25 66.9997 93.75 68.2497C102 83.9997 103.5 85.4997 115 81.4997C131 75.9997 123 57.2497 130.5 61.2497C126.5 55.2497 104 52.4997 120.25 33.4997Z" fill="#E8E8E8"/>
<path d="M133.25 46.2496C132.75 43.4996 138.75 37.2496 137.5 28.4996C136.25 20.4996 127 15.7496 124.25 24.9996C121.75 33.4996 113.75 31.4996 113.75 31.4996C119 10.9996 116.25 0.999555 104.75 13.2496C98.75 19.4996 104.25 -8.00044 85.25 21.2496C75.5 36.2496 79.5 -13.0004 62 4.99956C48 19.2496 37.25 -8.50044 28 8.24956C23.25 16.9996 33.5 18.2496 30.75 35.2496C30.75 35.2496 20.25 28.7496 21.25 50.2496C21.5 53.9996 2.75003 54.7496 7.00003 60.9996C11.25 59.2496 38 46.4996 36.5 58.2496C36 61.7496 33.75 72.9996 40 72.4996C46.75 71.9996 53 61.4996 53.25 73.4996C53.5 82.7496 58 83.2496 64.5 77.4996C66.25 75.9996 67.5 73.4996 70 72.4996C74.5 70.7496 78.75 73.2496 83 74.7496C91 77.7496 88.75 66.4996 83.25 64.4996C82.25 64.2496 76 63.2496 76.5 62.2496C77.5 59.2496 81 57.2496 83.5 55.9996C85.75 54.9996 88.25 54.2496 90.75 54.2496C94.25 54.4996 93 56.7496 92.25 59.4996C91.5 62.7496 92 66.9996 95.5 67.9996C99.5 69.2496 102.75 65.4996 105.5 63.2496C107.5 61.4996 120.75 52.9996 116.25 61.9996C113.5 67.2496 100.25 68.9996 106.25 76.7496C110.25 81.7496 115.75 79.4996 118.75 74.7496C121.25 70.9996 122.25 66.4996 123.25 61.9996C124 58.4996 124.25 56.4996 127.75 58.2496C132.5 60.7496 138.5 66.2496 138.75 57.2496C139 51.2496 141.25 40.2496 146.5 50.7496C143.25 36.9996 133.75 49.9996 133.25 46.2496ZM100.75 63.2496C100.5 63.4996 94.25 67.9996 93.25 63.7496C92.5 60.4996 95.75 56.7496 93.75 53.9996C90.25 49.2496 81 53.7496 77.5 56.2496C75.5 57.7496 70.5 62.4996 74.25 64.7496C77 66.4996 81.25 65.4996 83.75 67.9996C85.75 69.9996 86.25 73.7496 82.75 72.2496C78.25 70.4996 73.75 68.2496 68.75 70.2496C66 71.2496 59.25 81.2496 56 79.2496C54.25 78.2496 55 71.2496 54.75 69.2496C54 63.4996 50 64.4996 46.25 66.7496C44.75 67.7496 40.25 70.9996 38.5 69.7496C36.75 68.4996 37.75 62.9996 38 61.2496C39.25 50.4996 32.25 49.4996 23.25 51.9996C23.25 48.7496 23 35.7496 29 37.9996C32.5 39.2496 41.5 50.2496 44.75 43.9996C48.25 37.2496 63.75 7.49956 63.75 29.7496C63.75 35.7496 58.5 48.4996 62.75 51.4996C66.5 53.9996 76 43.4996 78.5 41.9996C84.75 37.7496 91.75 33.7496 95 43.2496C97.25 49.4996 97.75 57.7496 105.5 59.4996C103.5 60.7496 102 61.9996 100.75 63.2496ZM112.75 52.7496C112 57.2496 106.75 58.2496 103.25 56.2496C96 51.9996 100 37.2496 91 34.9996C80.25 32.2496 66.25 50.9996 64.25 48.9996C61.75 46.2496 67 34.7496 66.25 27.2496C64 7.99956 49 26.7496 43 42.2496C41.75 45.2496 32.5 37.2496 32.5 37.2496C37.25 16.7496 26 16.9996 29.5 10.4996C36.75 -4.00044 47.5 23.9996 62.25 8.74956C78.25 -7.50044 72.25 45.2496 87.25 22.9996C101 2.74955 98.75 19.4996 101.75 18.4996C107 16.7496 116 -0.500442 111.25 31.2496C81.5 25.7496 114.25 43.9996 112.75 52.7496ZM134.75 60.4996C131 59.7496 127 53.2496 122.5 55.4996C118.75 57.2496 118.5 67.2496 117 70.7496C115.25 74.9996 109.5 80.2496 106 73.9996C105.25 72.4996 116 65.7496 117.25 62.7496C119.75 56.9996 114.5 56.4996 115 52.7496C116.75 41.2496 89.25 29.7496 114 33.9996C128 36.4996 124.75 19.2496 131.25 22.9996C143.75 30.4996 122 49.2496 136 49.4996C135 53.2496 135.5 56.9996 134.75 60.4996Z" fill="white"/>
<path d="M16.5 57.4999C20.5 61.2499 21.75 66.5 19.25 69C17 71.5 12 70.25 8.00002 66.25C4.00002 62.2499 2.75002 57.25 5.25002 54.7499C7.75002 52.4999 12.75 53.7499 16.5 57.4999Z" fill="#E8E8E8"/>
</svg>